<svg width="129" height="33" viewBox="0 0 129 33" fill="none" xmlns="http://www.w3.org/2000/svg">
<path d="M0 0H106.434C113.95 0 117.708 0 120.158 1.55213C122.397 2.97008 123.981 5.21858 124.563 7.80376C125.2 10.6336 123.936 14.1725 121.406 21.2504L120.978 22.4504C119.634 26.2095 118.963 28.089 117.776 29.4829C116.682 30.7671 115.282 31.7539 113.705 32.3514C111.993 33 109.997 33 106.005 33H0V0Z" fill="url(#paint0_linear_367_3095)"/>
<path d="M17.5075 16.925C17.5075 15.9293 17.7298 15.04 18.1745 14.257C18.6288 13.4643 19.2427 12.8505 20.016 12.4155C20.799 11.9708 21.6738 11.7485 22.6405 11.7485C23.7715 11.7485 24.7623 12.0385 25.613 12.6185C26.4637 13.1985 27.0582 14.0008 27.3965 15.0255H25.062C24.83 14.5422 24.5013 14.1797 24.076 13.938C23.6603 13.6963 23.177 13.5755 22.626 13.5755C22.0363 13.5755 21.5095 13.7157 21.0455 13.996C20.5912 14.2667 20.2335 14.6533 19.9725 15.156C19.7212 15.6587 19.5955 16.2483 19.5955 16.925C19.5955 17.592 19.7212 18.1817 19.9725 18.694C20.2335 19.1967 20.5912 19.5882 21.0455 19.8685C21.5095 20.1392 22.0363 20.2745 22.626 20.2745C23.177 20.2745 23.6603 20.1537 24.076 19.912C24.5013 19.6607 24.83 19.2933 25.062 18.81H27.3965C27.0582 19.8443 26.4637 20.6515 25.613 21.2315C24.772 21.8018 23.7812 22.087 22.6405 22.087C21.6738 22.087 20.799 21.8695 20.016 21.4345C19.2427 20.9898 18.6288 20.376 18.1745 19.593C17.7298 18.81 17.5075 17.9207 17.5075 16.925ZM31.1604 15.214C31.4214 14.7887 31.7597 14.4552 32.1754 14.2135C32.6007 13.9718 33.084 13.851 33.6254 13.851V15.9825H33.0889C32.4509 15.9825 31.9675 16.1323 31.6389 16.432C31.3199 16.7317 31.1604 17.2537 31.1604 17.998V22H29.1304V13.967H31.1604V15.214ZM42.4602 17.8095C42.4602 18.0995 42.4409 18.3605 42.4022 18.5925H36.5297C36.578 19.1725 36.781 19.6268 37.1387 19.9555C37.4964 20.2842 37.9362 20.4485 38.4582 20.4485C39.2122 20.4485 39.7487 20.1247 40.0677 19.477H42.2572C42.0252 20.2503 41.5805 20.8883 40.9232 21.391C40.2659 21.884 39.4587 22.1305 38.5017 22.1305C37.7284 22.1305 37.0324 21.9613 36.4137 21.623C35.8047 21.275 35.3262 20.7868 34.9782 20.1585C34.6399 19.5302 34.4707 18.8052 34.4707 17.9835C34.4707 17.1522 34.6399 16.4223 34.9782 15.794C35.3165 15.1657 35.7902 14.6823 36.3992 14.344C37.0082 14.0057 37.709 13.8365 38.5017 13.8365C39.2654 13.8365 39.9469 14.0008 40.5462 14.3295C41.1552 14.6582 41.624 15.127 41.9527 15.736C42.291 16.3353 42.4602 17.0265 42.4602 17.8095ZM40.3577 17.2295C40.348 16.7075 40.1595 16.2918 39.7922 15.9825C39.4249 15.6635 38.9754 15.504 38.4437 15.504C37.941 15.504 37.5157 15.6587 37.1677 15.968C36.8294 16.2677 36.6215 16.6882 36.5442 17.2295H40.3577ZM43.4199 17.9545C43.4199 17.1425 43.5794 16.4223 43.8984 15.794C44.2271 15.1657 44.6669 14.6823 45.2179 14.344C45.7786 14.0057 46.4021 13.8365 47.0884 13.8365C47.6877 13.8365 48.2097 13.9573 48.6544 14.199C49.1087 14.4407 49.4712 14.7452 49.7419 15.1125V13.967H51.7864V22H49.7419V20.8255C49.4809 21.2025 49.1184 21.5167 48.6544 21.768C48.2001 22.0097 47.6732 22.1305 47.0739 22.1305C46.3972 22.1305 45.7786 21.9565 45.2179 21.6085C44.6669 21.2605 44.2271 20.7723 43.8984 20.144C43.5794 19.506 43.4199 18.7762 43.4199 17.9545ZM49.7419 17.9835C49.7419 17.4905 49.6452 17.07 49.4519 16.722C49.2586 16.3643 48.9976 16.0937 48.6689 15.91C48.3402 15.7167 47.9874 15.62 47.6104 15.62C47.2334 15.62 46.8854 15.7118 46.5664 15.8955C46.2474 16.0792 45.9864 16.3498 45.7834 16.7075C45.5901 17.0555 45.4934 17.4712 45.4934 17.9545C45.4934 18.4378 45.5901 18.8632 45.7834 19.2305C45.9864 19.5882 46.2474 19.8637 46.5664 20.057C46.8951 20.2503 47.2431 20.347 47.6104 20.347C47.9874 20.347 48.3402 20.2552 48.6689 20.0715C48.9976 19.8782 49.2586 19.6075 49.4519 19.2595C49.6452 18.9018 49.7419 18.4765 49.7419 17.9835ZM56.1326 15.6345V19.5205C56.1326 19.7912 56.1954 19.9893 56.3211 20.115C56.4564 20.231 56.6787 20.289 56.9881 20.289H57.9306V22H56.6546C54.9436 22 54.0881 21.1687 54.0881 19.506V15.6345H53.1311V13.967H54.0881V11.9805H56.1326V13.967H57.9306V15.6345H56.1326ZM66.8581 17.8095C66.8581 18.0995 66.8388 18.3605 66.8001 18.5925H60.9276C60.976 19.1725 61.179 19.6268 61.5366 19.9555C61.8943 20.2842 62.3341 20.4485 62.8561 20.4485C63.6101 20.4485 64.1466 20.1247 64.4656 19.477H66.6551C66.4231 20.2503 65.9785 20.8883 65.3211 21.391C64.6638 21.884 63.8566 22.1305 62.8996 22.1305C62.1263 22.1305 61.4303 21.9613 60.8116 21.623C60.2026 21.275 59.7241 20.7868 59.3761 20.1585C59.0378 19.5302 58.8686 18.8052 58.8686 17.9835C58.8686 17.1522 59.0378 16.4223 59.3761 15.794C59.7145 15.1657 60.1881 14.6823 60.7971 14.344C61.4061 14.0057 62.107 13.8365 62.8996 13.8365C63.6633 13.8365 64.3448 14.0008 64.9441 14.3295C65.5531 14.6582 66.022 15.127 66.3506 15.736C66.689 16.3353 66.8581 17.0265 66.8581 17.8095ZM64.7556 17.2295C64.746 16.7075 64.5575 16.2918 64.1901 15.9825C63.8228 15.6635 63.3733 15.504 62.8416 15.504C62.339 15.504 61.9136 15.6587 61.5656 15.968C61.2273 16.2677 61.0195 16.6882 60.9421 17.2295H64.7556ZM78.0009 20.0715H73.9699L73.3029 22H71.1714L74.8109 11.8645H77.1744L80.8139 22H78.6679L78.0009 20.0715ZM77.4499 18.4475L75.9854 14.2135L74.5209 18.4475H77.4499ZM91.3714 16.809C91.9417 16.9153 92.4106 17.2005 92.7779 17.6645C93.1452 18.1285 93.3289 18.6602 93.3289 19.2595C93.3289 19.8008 93.1936 20.2793 92.9229 20.695C92.6619 21.101 92.2801 21.42 91.7774 21.652C91.2747 21.884 90.6802 22 89.9939 22H85.6294V11.879H89.8054C90.4917 11.879 91.0814 11.9902 91.5744 12.2125C92.0771 12.4348 92.4541 12.7442 92.7054 13.1405C92.9664 13.5368 93.0969 13.9863 93.0969 14.489C93.0969 15.0787 92.9374 15.5717 92.6184 15.968C92.3091 16.3643 91.8934 16.6447 91.3714 16.809ZM87.6594 16.055H89.5154C89.9987 16.055 90.3709 15.9487 90.6319 15.736C90.8929 15.5137 91.0234 15.1995 91.0234 14.7935C91.0234 14.3875 90.8929 14.0733 90.6319 13.851C90.3709 13.6287 89.9987 13.5175 89.5154 13.5175H87.6594V16.055ZM89.7039 20.347C90.1969 20.347 90.5787 20.231 90.8494 19.999C91.1297 19.767 91.2699 19.4383 91.2699 19.013C91.2699 18.578 91.1249 18.2397 90.8349 17.998C90.5449 17.7467 90.1534 17.621 89.6604 17.621H87.6594V20.347H89.7039ZM102.414 17.8095C102.414 18.0995 102.395 18.3605 102.356 18.5925H96.4838C96.5321 19.1725 96.7351 19.6268 97.0928 19.9555C97.4505 20.2842 97.8903 20.4485 98.4123 20.4485C99.1663 20.4485 99.7028 20.1247 100.022 19.477H102.211C101.979 20.2503 101.535 20.8883 100.877 21.391C100.22 21.884 99.4128 22.1305 98.4558 22.1305C97.6825 22.1305 96.9865 21.9613 96.3678 21.623C95.7588 21.275 95.2803 20.7868 94.9323 20.1585C94.594 19.5302 94.4248 18.8052 94.4248 17.9835C94.4248 17.1522 94.594 16.4223 94.9323 15.794C95.2706 15.1657 95.7443 14.6823 96.3533 14.344C96.9623 14.0057 97.6631 13.8365 98.4558 13.8365C99.2195 13.8365 99.901 14.0008 100.5 14.3295C101.109 14.6582 101.578 15.127 101.907 15.736C102.245 16.3353 102.414 17.0265 102.414 17.8095ZM100.312 17.2295C100.302 16.7075 100.114 16.2918 99.7463 15.9825C99.379 15.6635 98.9295 15.504 98.3978 15.504C97.8951 15.504 97.4698 15.6587 97.1218 15.968C96.7835 16.2677 96.5756 16.6882 96.4983 17.2295H100.312ZM106.26 15.6345V19.5205C106.26 19.7912 106.322 19.9893 106.448 20.115C106.583 20.231 106.806 20.289 107.115 20.289H108.058V22H106.782C105.071 22 104.215 21.1687 104.215 19.506V15.6345H103.258V13.967H104.215V11.9805H106.26V13.967H108.058V15.6345H106.26Z" fill="white"/>
<path d="M11.2094 4L12.7462 8.27601L17.4188 9.68232L12.7462 11.0886L11.2094 15.3646L9.67267 11.0886L5 9.68232L9.67267 8.27601L11.2094 4Z" fill="white"/>
<defs>
<linearGradient id="paint0_linear_367_3095" x1="15.0083" y1="1.65001" x2="119.179" y2="27.3564" gradientUnits="userSpaceOnUse">
<stop stop-color="#7440FF"/>
<stop offset="1" stop-color="#FDA700" stop-opacity="0.88"/>
</linearGradient>
</defs>
</svg>
