<svg width="72" height="72" viewBox="0 0 72 72" fill="none" xmlns="http://www.w3.org/2000/svg">
<path d="M36 3.9375C27.4995 3.94715 19.3498 7.32826 13.3391 13.3391C7.32826 19.3498 3.94715 27.4995 3.9375 36C5.69888 78.5352 66.3076 78.5229 68.0626 35.9997C68.0528 27.4992 64.6717 19.3497 58.6609 13.3389C52.6501 7.32821 44.5005 3.94715 36 3.9375ZM36 64.6875C28.3943 64.6788 21.1025 61.6536 15.7245 56.2755C10.3464 50.8975 7.32117 43.6057 7.3125 36C8.88863 -2.0578 63.1171 -2.04676 64.6876 36.0002C64.6788 43.6059 61.6536 50.8976 56.2755 56.2756C50.8974 61.6536 43.6057 64.6788 36 64.6875Z" fill="#049C6B"/>
<path d="M48.3069 24.3069L33.0002 39.6136L25.943 32.5571C25.625 32.2482 25.1983 32.0769 24.755 32.0801C24.3117 32.0834 23.8875 32.2609 23.5741 32.5744C23.2606 32.8878 23.0831 33.3121 23.0799 33.7553C23.0767 34.1986 23.248 34.6254 23.5569 34.9433L31.8071 43.1934C32.1248 43.5075 32.5535 43.6837 33.0002 43.6837C33.4469 43.6837 33.8757 43.5075 34.1933 43.1934L50.6931 26.6931C51.0012 26.3749 51.1719 25.9484 51.1684 25.5055C51.1648 25.0627 50.9873 24.6389 50.6741 24.3258C50.361 24.0126 49.9372 23.8351 49.4944 23.8316C49.0515 23.8281 48.625 23.9988 48.3069 24.3069Z" fill="#049C6B"/>
</svg>
