<svg width="25" height="25" viewBox="0 0 25 25" fill="none" xmlns="http://www.w3.org/2000/svg">
<path d="M9.33074 4.17236C7.82585 4.24014 6.34977 4.40491 4.91049 4.5714C3.24941 4.76354 1.92098 6.09132 1.73535 7.75313C1.52668 9.62119 1.32532 11.5513 1.32532 13.5261C1.32532 15.5009 1.52668 17.431 1.73535 19.2991C1.92098 20.9609 3.24941 22.2887 4.91047 22.4808C6.78743 22.6979 8.72693 22.9122 10.7113 22.9122C12.6958 22.9122 14.6352 22.6979 16.5122 22.4808C18.1733 22.2887 19.5016 20.961 19.6874 19.2991C19.8375 17.9554 19.9838 16.5795 20.054 15.178" stroke="#7440FF" stroke-width="1.73116" stroke-linecap="round"/>
<path d="M17.4992 2.25516L11.1201 9.49341L10.2462 13.6037C10.1056 14.2651 10.795 14.8909 11.4406 14.6879L15.531 13.402L22.1201 6.46889C23.2143 5.31737 23.0234 3.39139 21.6987 2.21972C20.4052 1.0755 18.525 1.09136 17.4992 2.25516Z" fill="#D7E0FF" stroke="#7440FF" stroke-width="1.73116" stroke-linecap="round" stroke-linejoin="round"/>
</svg>
