<svg width="39" height="42" viewBox="0 0 39 42" fill="none" xmlns="http://www.w3.org/2000/svg">
<path d="M13.5258 10.8901C7.12286 10.8901 1.9323 16.0807 1.9323 22.4836V29.4122L0.565997 30.7785C0.0133798 31.3311 -0.151935 32.1622 0.14714 32.8842C0.446214 33.6063 1.15078 34.077 1.9323 34.077H25.1192C25.9007 34.077 26.6053 33.6063 26.9044 32.8842C27.2034 32.1622 27.0381 31.3311 26.4855 30.7785L25.1192 29.4122V22.4836C25.1192 16.0807 19.9286 10.8901 13.5258 10.8901Z" fill="white"/>
<path d="M13.5257 41.806C10.3243 41.806 7.72897 39.2107 7.72897 36.0093H19.3224C19.3224 39.2107 16.7271 41.806 13.5257 41.806Z" fill="white"/>
<path fill-rule="evenodd" clip-rule="evenodd" d="M33.0841 3.98485C33.68 5.15424 33.68 6.68505 33.68 9.74667V12.6974C33.68 13.0031 33.68 13.156 33.6739 13.2852C33.5405 16.1011 31.2878 18.3539 28.4718 18.4872C28.3426 18.4933 28.1721 18.4933 27.831 18.4933L27.7435 18.4935C26.6281 18.5006 25.5415 18.8488 24.6296 19.4913L24.5717 19.5326L21.7173 21.5715C20.7387 22.2704 19.4529 21.261 19.8995 20.1445C20.2159 19.3537 19.6334 18.4933 18.7816 18.4933H18.1237C15.8462 18.4933 14 16.6471 14 14.3697V9.74667C14 6.68505 14 5.15424 14.5958 3.98485C15.1199 2.95623 15.9562 2.11994 16.9848 1.59583C18.1542 1 19.685 1 22.7467 1H24.9333C27.9949 1 29.5257 1 30.6951 1.59583C31.7237 2.11994 32.56 2.95623 33.0841 3.98485ZM20.56 9.74667C20.56 10.3505 20.0705 10.84 19.4667 10.84C18.8628 10.84 18.3733 10.3505 18.3733 9.74667C18.3733 9.14284 18.8628 8.65334 19.4667 8.65334C20.0705 8.65334 20.56 9.14284 20.56 9.74667ZM24.9333 9.74667C24.9333 10.3505 24.4438 10.84 23.84 10.84C23.2362 10.84 22.7467 10.3505 22.7467 9.74667C22.7467 9.14284 23.2362 8.65334 23.84 8.65334C24.4438 8.65334 24.9333 9.14284 24.9333 9.74667ZM28.2133 10.84C28.8171 10.84 29.3066 10.3505 29.3066 9.74667C29.3066 9.14284 28.8171 8.65334 28.2133 8.65334C27.6095 8.65334 27.12 9.14284 27.12 9.74667C27.12 10.3505 27.6095 10.84 28.2133 10.84Z" fill="#BEFF07" stroke="#BEFF07"/>
<path fill-rule="evenodd" clip-rule="evenodd" d="M30.5156 9.71744C31 9.99851 31 10.3665 31 11.1024V11.8116C31 11.8851 31 11.9218 30.995 11.9529C30.8866 12.6297 29.0551 13.1712 26.7657 13.2032C26.6607 13.2047 26.5221 13.2047 26.2448 13.2047L26.1736 13.2047C25.2667 13.2064 24.3833 13.2901 23.642 13.4446L23.5949 13.4545L21.2742 13.9446C20.4787 14.1126 19.4333 13.8699 19.7964 13.6016C20.0536 13.4115 19.58 13.2047 18.8875 13.2047H18.3526C16.501 13.2047 15 12.7609 15 12.2135V11.1024C15 10.3665 15 9.99851 15.4844 9.71744C15.9105 9.4702 16.5904 9.26919 17.4267 9.14321C18.3774 9 19.622 9 22.1111 9H23.8889C26.378 9 27.6226 9 28.5733 9.14321C29.4096 9.26919 30.0895 9.4702 30.5156 9.71744ZM20.3333 11.1024C20.3333 11.2475 19.9354 11.3651 19.4444 11.3651C18.9535 11.3651 18.5556 11.2475 18.5556 11.1024C18.5556 10.9572 18.9535 10.8396 19.4444 10.8396C19.9354 10.8396 20.3333 10.9572 20.3333 11.1024ZM23.8889 11.1024C23.8889 11.2475 23.4909 11.3651 23 11.3651C22.5091 11.3651 22.1111 11.2475 22.1111 11.1024C22.1111 10.9572 22.5091 10.8396 23 10.8396C23.4909 10.8396 23.8889 10.9572 23.8889 11.1024ZM26.5556 11.3651C27.0465 11.3651 27.4444 11.2475 27.4444 11.1024C27.4444 10.9572 27.0465 10.8396 26.5556 10.8396C26.0646 10.8396 25.6667 10.9572 25.6667 11.1024C25.6667 11.2475 26.0646 11.3651 26.5556 11.3651Z" fill="#BEFF07" stroke="#BEFF07"/>
<path d="M21.4914 11.641L20.0334 12.325L19.9884 12.1H23.3454V13H18.5484V12.1C19.0884 11.854 19.5744 11.644 20.0064 11.47C20.4384 11.296 20.8044 11.14 21.1044 11.002C21.4044 10.858 21.6324 10.714 21.7884 10.57C21.9504 10.42 22.0314 10.255 22.0314 10.075C22.0314 9.931 21.9894 9.808 21.9054 9.706C21.8214 9.598 21.6894 9.514 21.5094 9.454C21.3294 9.394 21.0954 9.364 20.8074 9.364C20.4294 9.364 20.1234 9.439 19.8894 9.589C19.6614 9.733 19.5414 9.931 19.5294 10.183H18.3954C18.3774 9.835 18.4614 9.529 18.6474 9.265C18.8394 9.001 19.1184 8.794 19.4844 8.644C19.8504 8.494 20.2824 8.419 20.7804 8.419C21.1464 8.419 21.4794 8.455 21.7794 8.527C22.0794 8.593 22.3374 8.692 22.5534 8.824C22.7754 8.956 22.9434 9.115 23.0574 9.301C23.1774 9.487 23.2374 9.697 23.2374 9.931C23.2374 10.111 23.2044 10.276 23.1384 10.426C23.0724 10.57 22.9674 10.708 22.8234 10.84C22.6854 10.972 22.5054 11.104 22.2834 11.236C22.0614 11.362 21.7974 11.497 21.4914 11.641ZM27.2336 9.166C27.7076 9.166 28.1216 9.247 28.4756 9.409C28.8296 9.571 29.1026 9.802 29.2946 10.102C29.4926 10.396 29.5886 10.741 29.5826 11.137C29.5766 11.533 29.4656 11.881 29.2496 12.181C29.0336 12.475 28.7246 12.706 28.3226 12.874C27.9206 13.036 27.4376 13.117 26.8736 13.117C26.2796 13.117 25.7606 13.042 25.3166 12.892C24.8786 12.742 24.5396 12.523 24.2996 12.235C24.0596 11.941 23.9426 11.59 23.9486 11.182C23.9486 11.038 23.9696 10.882 24.0116 10.714C24.0596 10.54 24.1436 10.354 24.2636 10.156C24.2816 10.12 24.3326 10.042 24.4166 9.922C24.5066 9.796 24.6116 9.643 24.7316 9.463C24.8576 9.283 24.9926 9.091 25.1366 8.887C25.2806 8.683 25.4216 8.479 25.5596 8.275C25.7036 8.071 25.8326 7.888 25.9466 7.726C26.0666 7.558 26.1596 7.426 26.2256 7.33C26.2976 7.228 26.3336 7.177 26.3336 7.177H27.8096L24.7766 10.921L24.4256 11.227C24.6596 10.909 24.8816 10.624 25.0916 10.372C25.3016 10.114 25.5116 9.895 25.7216 9.715C25.9376 9.535 26.1656 9.4 26.4056 9.31C26.6516 9.214 26.9276 9.166 27.2336 9.166ZM26.8106 12.163C27.2726 12.163 27.6476 12.073 27.9356 11.893C28.2296 11.713 28.3796 11.455 28.3856 11.119C28.3916 10.783 28.2506 10.525 27.9626 10.345C27.6806 10.159 27.3086 10.066 26.8466 10.066C26.3306 10.066 25.9196 10.168 25.6136 10.372C25.3076 10.576 25.1516 10.828 25.1456 11.128C25.1396 11.464 25.2926 11.722 25.6046 11.902C25.9226 12.076 26.3246 12.163 26.8106 12.163Z" fill="#2D2D2D"/>
</svg>
