<svg width="40" height="40" viewBox="0 0 40 40" fill="black" xmlns="http://www.w3.org/2000/svg">
<path fill-rule="evenodd" clip-rule="evenodd" d="M40 20C40 31.0457 31.0457 40 20 40C8.9543 40 0 31.0457 0 20C0 8.9543 8.9543 0 20 0C31.0457 0 40 8.9543 40 20ZM21.7661 22.2254C22.2369 22.7916 23.0776 22.8688 23.6438 22.398L29.5193 17.5115C29.8239 17.2582 30.0001 16.8826 30.0001 16.4864C30.0001 16.0902 29.8239 15.7146 29.5193 15.4613L23.6438 10.5749C23.0776 10.104 22.2369 10.1813 21.7661 10.7475C21.2952 11.3136 21.3725 12.1543 21.9387 12.6252L24.9784 15.1531H17.2901C13.2639 15.1531 10 18.417 10 22.4432C10 26.4694 13.2639 29.7333 17.2901 29.7333H24.3224C25.0588 29.7333 25.6557 29.1364 25.6557 28.4C25.6557 27.6636 25.0588 27.0667 24.3224 27.0667H17.2901C14.7367 27.0667 12.6667 24.9967 12.6667 22.4432C12.6667 19.8898 14.7367 17.8198 17.2901 17.8198H24.9782L21.9386 20.3477C21.3725 20.8185 21.2952 21.6592 21.7661 22.2254Z" fill="white"/>
</svg>
